<svg width="2499" height="2538" viewBox="0 0 2499 2538" fill="none" xmlns="http://www.w3.org/2000/svg">
<path fill-rule="evenodd" clip-rule="evenodd" d="M322.228 627.289C268.638 720.109 268.638 834.469 322.228 927.289L597.791 1404.58C651.381 1497.4 750.419 1554.58 857.599 1554.58H1408.72C1515.9 1554.58 1614.94 1497.4 1668.53 1404.58L1944.09 927.289C1997.68 834.469 1997.68 720.109 1944.09 627.289L1668.53 150C1614.94 57.1797 1515.9 0 1408.72 0H857.599C750.419 0 651.381 57.1798 597.791 150L322.228 627.289ZM1414.81 1018.84H1071.83L1414.81 524.286V375.461H851.504V535.734H1192.21L851.504 1030.29V1179.11H1414.81V1018.84Z" fill="white"/>
<path d="M358.234 1876.1C389.685 1876.1 416.909 1881.34 439.906 1891.82C463.24 1902.3 481.164 1917.17 493.677 1936.43C506.19 1955.7 512.446 1978.52 512.446 2004.88C512.446 2030.91 506.19 2053.72 493.677 2073.33C481.164 2092.59 463.24 2107.46 439.906 2117.94C416.909 2128.08 389.685 2133.15 358.234 2133.15H286.708V2231H204.529V1876.1H358.234ZM353.669 2066.23C378.356 2066.23 397.125 2060.99 409.976 2050.51C422.827 2039.69 429.253 2024.48 429.253 2004.88C429.253 1984.94 422.827 1969.73 409.976 1959.25C397.125 1948.43 378.356 1943.03 353.669 1943.03H286.708V2066.23H353.669Z" fill="white"/>
<path d="M664.114 1954.18C706.387 1954.18 738.852 1964.32 761.511 1984.6C784.169 2004.54 795.498 2034.79 795.498 2075.35V2231H721.436V2197.03C706.556 2222.38 678.825 2235.06 638.243 2235.06C617.275 2235.06 599.013 2231.51 583.457 2224.41C568.239 2217.31 556.571 2207.51 548.455 2195.01C540.338 2182.5 536.28 2168.3 536.28 2152.42C536.28 2127.07 545.749 2107.13 564.688 2092.59C583.964 2078.06 613.555 2070.79 653.461 2070.79H716.363C716.363 2053.55 711.121 2040.37 700.638 2031.24C690.154 2021.78 674.428 2017.05 653.461 2017.05C638.919 2017.05 624.546 2019.41 610.342 2024.15C596.477 2028.54 584.641 2034.62 574.833 2042.4L546.426 1987.13C561.306 1976.66 579.06 1968.54 599.69 1962.8C620.657 1957.05 642.132 1954.18 664.114 1954.18ZM658.026 2181.82C671.554 2181.82 683.559 2178.78 694.043 2172.7C704.527 2166.28 711.967 2156.98 716.363 2144.81V2116.93H662.085C629.619 2116.93 613.386 2127.57 613.386 2148.87C613.386 2159.01 617.275 2167.12 625.053 2173.21C633.17 2178.95 644.161 2181.82 658.026 2181.82Z" fill="white"/>
<path d="M1170.13 2166.11V2289.82H1096.57V2231H904.824V2289.82H831.269V2166.11H842.429C859.338 2165.77 871.006 2155.8 877.431 2136.19C883.857 2116.59 887.915 2088.7 889.606 2052.54L893.157 1958.24H1131.07V2166.11H1170.13ZM961.132 2058.12C960.117 2085.83 957.919 2108.48 954.537 2126.05C951.494 2143.63 945.575 2156.98 936.783 2166.11H1051.93V2023.13H962.654L961.132 2058.12Z" fill="white"/>
<path d="M1219.93 1958.24H1298.56V2120.48L1431.46 1958.24H1504V2231H1425.38V2068.76L1292.98 2231H1219.93V1958.24Z" fill="white"/>
<path d="M1707.91 2235.06C1679.16 2235.06 1653.29 2229.14 1630.3 2217.31C1607.64 2205.15 1589.88 2188.42 1577.03 2167.12C1564.18 2145.83 1557.76 2121.66 1557.76 2094.62C1557.76 2067.58 1564.18 2043.41 1577.03 2022.12C1589.88 2000.82 1607.64 1984.26 1630.3 1972.43C1653.29 1960.26 1679.16 1954.18 1707.91 1954.18C1736.66 1954.18 1762.36 1960.26 1785.02 1972.43C1807.67 1984.26 1825.43 2000.82 1838.28 2022.12C1851.13 2043.41 1857.56 2067.58 1857.56 2094.62C1857.56 2121.66 1851.13 2145.83 1838.28 2167.12C1825.43 2188.42 1807.67 2205.15 1785.02 2217.31C1762.36 2229.14 1736.66 2235.06 1707.91 2235.06ZM1707.91 2170.16C1728.2 2170.16 1744.77 2163.4 1757.62 2149.88C1770.81 2136.03 1777.41 2117.6 1777.41 2094.62C1777.41 2071.64 1770.81 2053.38 1757.62 2039.86C1744.77 2026.01 1728.2 2019.08 1707.91 2019.08C1687.62 2019.08 1670.88 2026.01 1657.69 2039.86C1644.5 2053.38 1637.91 2071.64 1637.91 2094.62C1637.91 2117.6 1644.5 2136.03 1657.69 2149.88C1670.88 2163.4 1687.62 2170.16 1707.91 2170.16Z" fill="white"/>
<path d="M2347.33 2164.08V2231H2036.88V2177.77L2231.67 1943.03H2040.94V1876.1H2339.72V1929.34L2145.44 2164.08H2347.33Z" fill="white"/>
<path d="M109.762 2383.8H64.107V2500.35H45.4646V2383.8H0V2367.26H109.762V2383.8Z" fill="white"/>
<path d="M162.617 2501.49C152.598 2501.49 143.594 2499.27 135.605 2494.84C127.615 2490.4 121.338 2484.32 116.772 2476.58C112.333 2468.73 110.114 2459.85 110.114 2449.97C110.114 2440.08 112.333 2431.27 116.772 2423.54C121.338 2415.68 127.615 2409.6 135.605 2405.29C143.594 2400.85 152.598 2398.63 162.617 2398.63C172.636 2398.63 181.577 2400.85 189.439 2405.29C197.429 2409.6 203.643 2415.68 208.082 2423.54C212.647 2431.27 214.93 2440.08 214.93 2449.97C214.93 2459.85 212.647 2468.73 208.082 2476.58C203.643 2484.32 197.429 2490.4 189.439 2494.84C181.577 2499.27 172.636 2501.49 162.617 2501.49ZM162.617 2485.52C169.085 2485.52 174.855 2484.06 179.928 2481.15C185.128 2478.1 189.186 2473.92 192.103 2468.6C195.019 2463.15 196.478 2456.94 196.478 2449.97C196.478 2442.99 195.019 2436.85 192.103 2431.52C189.186 2426.07 185.128 2421.89 179.928 2418.98C174.855 2416.06 169.085 2414.6 162.617 2414.6C156.149 2414.6 150.316 2416.06 145.116 2418.98C140.043 2421.89 135.985 2426.07 132.942 2431.52C130.025 2436.85 128.566 2442.99 128.566 2449.97C128.566 2456.94 130.025 2463.15 132.942 2468.6C135.985 2473.92 140.043 2478.1 145.116 2481.15C150.316 2484.06 156.149 2485.52 162.617 2485.52Z" fill="white"/>
<path d="M327.111 2399.58V2500.35H308.849V2415.55H265.477L264.336 2437.99C263.702 2451.55 262.497 2462.89 260.722 2472.02C258.946 2481.02 256.029 2488.24 251.971 2493.7C247.913 2499.15 242.269 2501.87 235.041 2501.87C231.743 2501.87 228.002 2501.3 223.817 2500.16L224.959 2484.76C226.607 2485.14 228.129 2485.33 229.524 2485.33C234.597 2485.33 238.401 2483.11 240.938 2478.68C243.474 2474.24 245.123 2468.98 245.884 2462.89C246.645 2456.81 247.342 2448.13 247.976 2436.85L249.688 2399.58H327.111Z" fill="white"/>
<path d="M409.029 2433.81C421.837 2433.93 431.602 2436.85 438.324 2442.55C445.045 2448.26 448.406 2456.3 448.406 2466.7C448.406 2477.6 444.728 2486.03 437.373 2491.98C430.144 2497.81 419.745 2500.67 406.175 2500.54L362.423 2500.35V2399.58H380.685V2433.62L409.029 2433.81ZM404.653 2486.66C412.897 2486.79 419.111 2485.14 423.296 2481.72C427.608 2478.29 429.763 2473.22 429.763 2466.51C429.763 2459.92 427.671 2455.1 423.486 2452.06C419.428 2449.02 413.15 2447.43 404.653 2447.3L380.685 2446.92V2486.47L404.653 2486.66Z" fill="white"/>
<path d="M511.028 2457.76H490.103V2500.35H471.841V2399.58H490.103V2442.17H511.409L544.128 2399.58H563.722L525.486 2448.06L566.385 2500.35H544.889L511.028 2457.76Z" fill="white"/>
<path d="M625.37 2501.49C615.352 2501.49 606.348 2499.27 598.358 2494.84C590.368 2490.4 584.091 2484.32 579.525 2476.58C575.087 2468.73 572.867 2459.85 572.867 2449.97C572.867 2440.08 575.087 2431.27 579.525 2423.54C584.091 2415.68 590.368 2409.6 598.358 2405.29C606.348 2400.85 615.352 2398.63 625.37 2398.63C635.389 2398.63 644.33 2400.85 652.193 2405.29C660.182 2409.6 666.396 2415.68 670.835 2423.54C675.401 2431.27 677.683 2440.08 677.683 2449.97C677.683 2459.85 675.401 2468.73 670.835 2476.58C666.396 2484.32 660.182 2490.4 652.193 2494.84C644.33 2499.27 635.389 2501.49 625.37 2501.49ZM625.37 2485.52C631.838 2485.52 637.609 2484.06 642.681 2481.15C647.881 2478.1 651.939 2473.92 654.856 2468.6C657.773 2463.15 659.231 2456.94 659.231 2449.97C659.231 2442.99 657.773 2436.85 654.856 2431.52C651.939 2426.07 647.881 2421.89 642.681 2418.98C637.609 2416.06 631.838 2414.6 625.37 2414.6C618.903 2414.6 613.069 2416.06 607.869 2418.98C602.797 2421.89 598.738 2426.07 595.695 2431.52C592.778 2436.85 591.32 2442.99 591.32 2449.97C591.32 2456.94 592.778 2463.15 595.695 2468.6C598.738 2473.92 602.797 2478.1 607.869 2481.15C613.069 2484.06 618.903 2485.52 625.37 2485.52Z" fill="white"/>
<path d="M818.106 2500.35L789.001 2461.75L759.516 2500.35H739.161L778.919 2448.83L741.064 2399.58H761.418L789.192 2435.9L816.775 2399.58H836.749L798.703 2448.83L838.841 2500.35H818.106Z" fill="white"/>
<path d="M897.895 2501.49C887.877 2501.49 878.872 2499.27 870.883 2494.84C862.893 2490.4 856.616 2484.32 852.05 2476.58C847.611 2468.73 845.392 2459.85 845.392 2449.97C845.392 2440.08 847.611 2431.27 852.05 2423.54C856.616 2415.68 862.893 2409.6 870.883 2405.29C878.872 2400.85 887.877 2398.63 897.895 2398.63C907.914 2398.63 916.855 2400.85 924.717 2405.29C932.707 2409.6 938.921 2415.68 943.36 2423.54C947.925 2431.27 950.208 2440.08 950.208 2449.97C950.208 2459.85 947.925 2468.73 943.36 2476.58C938.921 2484.32 932.707 2490.4 924.717 2494.84C916.855 2499.27 907.914 2501.49 897.895 2501.49ZM897.895 2485.52C904.363 2485.52 910.133 2484.06 915.206 2481.15C920.406 2478.1 924.464 2473.92 927.381 2468.6C930.298 2463.15 931.756 2456.94 931.756 2449.97C931.756 2442.99 930.298 2436.85 927.381 2431.52C924.464 2426.07 920.406 2421.89 915.206 2418.98C910.133 2416.06 904.363 2414.6 897.895 2414.6C891.427 2414.6 885.594 2416.06 880.394 2418.98C875.321 2421.89 871.263 2426.07 868.22 2431.52C865.303 2436.85 863.844 2442.99 863.844 2449.97C863.844 2456.94 865.303 2463.15 868.22 2468.6C871.263 2473.92 875.321 2478.1 880.394 2481.15C885.594 2484.06 891.427 2485.52 897.895 2485.52Z" fill="white"/>
<path d="M1030.03 2398.63C1039.8 2398.63 1048.55 2400.79 1056.28 2405.1C1064.02 2409.41 1070.04 2415.43 1074.36 2423.16C1078.79 2430.89 1081.01 2439.83 1081.01 2449.97C1081.01 2460.11 1078.79 2469.11 1074.36 2476.96C1070.04 2484.7 1064.02 2490.72 1056.28 2495.03C1048.55 2499.34 1039.8 2501.49 1030.03 2501.49C1022.8 2501.49 1016.15 2500.1 1010.06 2497.31C1004.1 2494.52 999.025 2490.46 994.84 2485.14V2537.23H976.578V2399.58H994.08V2415.55C998.138 2409.98 1003.27 2405.79 1009.49 2403C1015.7 2400.09 1022.55 2398.63 1030.03 2398.63ZM1028.51 2485.52C1034.98 2485.52 1040.75 2484.06 1045.82 2481.15C1051.02 2478.1 1055.08 2473.92 1058 2468.6C1061.04 2463.15 1062.56 2456.94 1062.56 2449.97C1062.56 2442.99 1061.04 2436.85 1058 2431.52C1055.08 2426.07 1051.02 2421.89 1045.82 2418.98C1040.75 2416.06 1034.98 2414.6 1028.51 2414.6C1022.17 2414.6 1016.4 2416.12 1011.2 2419.17C1006.13 2422.08 1002.07 2426.2 999.025 2431.52C996.109 2436.85 994.65 2442.99 994.65 2449.97C994.65 2456.94 996.109 2463.15 999.025 2468.6C1001.94 2473.92 1006 2478.1 1011.2 2481.15C1016.4 2484.06 1022.17 2485.52 1028.51 2485.52Z" fill="white"/>
<path d="M1150.73 2501.49C1140.71 2501.49 1131.71 2499.27 1123.72 2494.84C1115.73 2490.4 1109.45 2484.32 1104.88 2476.58C1100.44 2468.73 1098.23 2459.85 1098.23 2449.97C1098.23 2440.08 1100.44 2431.27 1104.88 2423.54C1109.45 2415.68 1115.73 2409.6 1123.72 2405.29C1131.71 2400.85 1140.71 2398.63 1150.73 2398.63C1160.75 2398.63 1169.69 2400.85 1177.55 2405.29C1185.54 2409.6 1191.75 2415.68 1196.19 2423.54C1200.76 2431.27 1203.04 2440.08 1203.04 2449.97C1203.04 2459.85 1200.76 2468.73 1196.19 2476.58C1191.75 2484.32 1185.54 2490.4 1177.55 2494.84C1169.69 2499.27 1160.75 2501.49 1150.73 2501.49ZM1150.73 2485.52C1157.2 2485.52 1162.97 2484.06 1168.04 2481.15C1173.24 2478.1 1177.3 2473.92 1180.21 2468.6C1183.13 2463.15 1184.59 2456.94 1184.59 2449.97C1184.59 2442.99 1183.13 2436.85 1180.21 2431.52C1177.3 2426.07 1173.24 2421.89 1168.04 2418.98C1162.97 2416.06 1157.2 2414.6 1150.73 2414.6C1144.26 2414.6 1138.43 2416.06 1133.23 2418.98C1128.15 2421.89 1124.1 2426.07 1121.05 2431.52C1118.14 2436.85 1116.68 2442.99 1116.68 2449.97C1116.68 2456.94 1118.14 2463.15 1121.05 2468.6C1124.1 2473.92 1128.15 2478.1 1133.23 2481.15C1138.43 2484.06 1144.26 2485.52 1150.73 2485.52Z" fill="white"/>
<path d="M1373.03 2399.58V2500.35H1229.41V2399.58H1247.67V2484.38H1292.19V2399.58H1310.45V2484.38H1354.77V2399.58H1373.03Z" fill="white"/>
<path d="M1408.49 2399.58H1426.76V2472.97L1488.58 2399.58H1505.13V2500.35H1486.87V2426.96L1425.23 2500.35H1408.49V2399.58Z" fill="white"/>
<path d="M1631.7 2450.54C1631.7 2451.93 1631.57 2453.77 1631.32 2456.05H1549.52C1550.66 2464.92 1554.53 2472.08 1561.12 2477.53C1567.84 2482.86 1576.15 2485.52 1586.04 2485.52C1598.09 2485.52 1607.79 2481.46 1615.15 2473.35L1625.23 2485.14C1620.66 2490.46 1614.96 2494.52 1608.11 2497.31C1601.39 2500.1 1593.84 2501.49 1585.47 2501.49C1574.82 2501.49 1565.37 2499.34 1557.13 2495.03C1548.88 2490.59 1542.48 2484.44 1537.91 2476.58C1533.47 2468.73 1531.26 2459.85 1531.26 2449.97C1531.26 2440.21 1533.41 2431.4 1537.72 2423.54C1542.16 2415.68 1548.19 2409.6 1555.79 2405.29C1563.53 2400.85 1572.22 2398.63 1581.86 2398.63C1591.49 2398.63 1600.05 2400.85 1607.54 2405.29C1615.15 2409.6 1621.04 2415.68 1625.23 2423.54C1629.54 2431.4 1631.7 2440.4 1631.7 2450.54ZM1581.86 2414.03C1573.11 2414.03 1565.75 2416.69 1559.79 2422.02C1553.96 2427.34 1550.53 2434.31 1549.52 2442.93H1614.19C1613.18 2434.44 1609.69 2427.53 1603.73 2422.21C1597.9 2416.76 1590.61 2414.03 1581.86 2414.03Z" fill="white"/>
<path d="M1711.11 2399.58H1729.38V2442.36H1786.82V2399.58H1805.09V2500.35H1786.82V2458.14H1729.38V2500.35H1711.11V2399.58Z" fill="white"/>
<path d="M1883.78 2501.49C1873.76 2501.49 1864.75 2499.27 1856.76 2494.84C1848.78 2490.4 1842.5 2484.32 1837.93 2476.58C1833.49 2468.73 1831.27 2459.85 1831.27 2449.97C1831.27 2440.08 1833.49 2431.27 1837.93 2423.54C1842.5 2415.68 1848.78 2409.6 1856.76 2405.29C1864.75 2400.85 1873.76 2398.63 1883.78 2398.63C1893.8 2398.63 1902.74 2400.85 1910.6 2405.29C1918.59 2409.6 1924.8 2415.68 1929.24 2423.54C1933.81 2431.27 1936.09 2440.08 1936.09 2449.97C1936.09 2459.85 1933.81 2468.73 1929.24 2476.58C1924.8 2484.32 1918.59 2490.4 1910.6 2494.84C1902.74 2499.27 1893.8 2501.49 1883.78 2501.49ZM1883.78 2485.52C1890.24 2485.52 1896.02 2484.06 1901.09 2481.15C1906.29 2478.1 1910.35 2473.92 1913.26 2468.6C1916.18 2463.15 1917.64 2456.94 1917.64 2449.97C1917.64 2442.99 1916.18 2436.85 1913.26 2431.52C1910.35 2426.07 1906.29 2421.89 1901.09 2418.98C1896.02 2416.06 1890.24 2414.6 1883.78 2414.6C1877.31 2414.6 1871.48 2416.06 1866.28 2418.98C1861.2 2421.89 1857.15 2426.07 1854.1 2431.52C1851.18 2436.85 1849.73 2442.99 1849.73 2449.97C1849.73 2456.94 1851.18 2463.15 1854.1 2468.6C1857.15 2473.92 1861.2 2478.1 1866.28 2481.15C1871.48 2484.06 1877.31 2485.52 1883.78 2485.52Z" fill="white"/>
<path d="M2031.13 2448.06C2044.2 2451.36 2050.73 2459.54 2050.73 2472.59C2050.73 2481.46 2047.37 2488.31 2040.64 2493.12C2034.05 2497.94 2024.16 2500.35 2010.97 2500.35H1962.46V2399.58H2009.26C2021.18 2399.58 2030.5 2401.86 2037.22 2406.43C2043.94 2410.86 2047.3 2417.2 2047.3 2425.44C2047.3 2430.76 2045.84 2435.39 2042.93 2439.32C2040.14 2443.12 2036.21 2446.04 2031.13 2448.06ZM1980.34 2442.93H2007.73C2014.71 2442.93 2019.97 2441.66 2023.52 2439.13C2027.2 2436.59 2029.04 2432.92 2029.04 2428.1C2029.04 2418.47 2021.94 2413.65 2007.73 2413.65H1980.34V2442.93ZM2009.64 2486.28C2017.25 2486.28 2022.95 2485.08 2026.76 2482.67C2030.56 2480.26 2032.46 2476.52 2032.46 2471.45C2032.46 2466.25 2030.69 2462.39 2027.14 2459.85C2023.71 2457.32 2018.26 2456.05 2010.78 2456.05H1980.34V2486.28H2009.64Z" fill="white"/>
<path d="M2122.49 2501.49C2112.47 2501.49 2103.47 2499.27 2095.48 2494.84C2087.49 2490.4 2081.21 2484.32 2076.65 2476.58C2072.21 2468.73 2069.99 2459.85 2069.99 2449.97C2069.99 2440.08 2072.21 2431.27 2076.65 2423.54C2081.21 2415.68 2087.49 2409.6 2095.48 2405.29C2103.47 2400.85 2112.47 2398.63 2122.49 2398.63C2132.51 2398.63 2141.45 2400.85 2149.31 2405.29C2157.3 2409.6 2163.52 2415.68 2167.96 2423.54C2172.52 2431.27 2174.8 2440.08 2174.8 2449.97C2174.8 2459.85 2172.52 2468.73 2167.96 2476.58C2163.52 2484.32 2157.3 2490.4 2149.31 2494.84C2141.45 2499.27 2132.51 2501.49 2122.49 2501.49ZM2122.49 2485.52C2128.96 2485.52 2134.73 2484.06 2139.8 2481.15C2145 2478.1 2149.06 2473.92 2151.98 2468.6C2154.89 2463.15 2156.35 2456.94 2156.35 2449.97C2156.35 2442.99 2154.89 2436.85 2151.98 2431.52C2149.06 2426.07 2145 2421.89 2139.8 2418.98C2134.73 2416.06 2128.96 2414.6 2122.49 2414.6C2116.02 2414.6 2110.19 2416.06 2104.99 2418.98C2099.92 2421.89 2095.86 2426.07 2092.82 2431.52C2089.9 2436.85 2088.44 2442.99 2088.44 2449.97C2088.44 2456.94 2089.9 2463.15 2092.82 2468.6C2095.86 2473.92 2099.92 2478.1 2104.99 2481.15C2110.19 2484.06 2116.02 2485.52 2122.49 2485.52Z" fill="white"/>
<path d="M2245.12 2501.49C2234.85 2501.49 2225.65 2499.27 2217.53 2494.84C2209.54 2490.4 2203.27 2484.32 2198.7 2476.58C2194.14 2468.73 2191.85 2459.85 2191.85 2449.97C2191.85 2440.08 2194.14 2431.27 2198.7 2423.54C2203.27 2415.68 2209.54 2409.6 2217.53 2405.29C2225.65 2400.85 2234.85 2398.63 2245.12 2398.63C2254.25 2398.63 2262.37 2400.47 2269.47 2404.15C2276.7 2407.82 2282.28 2413.14 2286.21 2420.12L2272.32 2429.05C2269.15 2424.24 2265.22 2420.62 2260.53 2418.21C2255.83 2415.81 2250.63 2414.6 2244.93 2414.6C2238.33 2414.6 2232.37 2416.06 2227.05 2418.98C2221.85 2421.89 2217.72 2426.07 2214.68 2431.52C2211.76 2436.85 2210.31 2442.99 2210.31 2449.97C2210.31 2457.06 2211.76 2463.34 2214.68 2468.79C2217.72 2474.11 2221.85 2478.23 2227.05 2481.15C2232.37 2484.06 2238.33 2485.52 2244.93 2485.52C2250.63 2485.52 2255.83 2484.32 2260.53 2481.91C2265.22 2479.5 2269.15 2475.89 2272.32 2471.07L2286.21 2479.82C2282.28 2486.79 2276.7 2492.17 2269.47 2495.98C2262.37 2499.65 2254.25 2501.49 2245.12 2501.49Z" fill="white"/>
<path d="M2383.69 2415.55H2346.79V2500.35H2328.52V2415.55H2291.62V2399.58H2383.69V2415.55Z" fill="white"/>
<path d="M2402.36 2399.58H2420.63V2472.97L2482.45 2399.58H2499V2500.35H2480.74V2426.96L2419.1 2500.35H2402.36V2399.58Z" fill="white"/>
</svg>
